<svg xmlns="http://www.w3.org/2000/svg" height="800" width="1200" xml:space="preserve" y="0" x="0" id="webOS_x5F_banner_x5F_whitecircle_xA0_Image_1_" version="1.1" viewBox="-93.015 -30.8 806.13 184.8"><style id="style6162" type="text/css">.st0{fill:#5a6870}.st1{fill:#7c7b7b}.st2{fill:#c2064c}.st11{fill:#b4bdc3}.st23{fill:#fff}</style><g id="g6170"><g id="g6168"><path id="polygon6164" class="st0" d="M207.3 86h-38.1V21.9h-18.4v79.7h56.5z"/><path id="path6166" d="M247.8 71.2h15v13.9c-2.8 1.1-8.2 2.1-13.3 2.1-16.6 0-22.1-8.4-22.1-25.5 0-16.3 5.3-25.9 21.8-25.9 9.2 0 14.5 2.9 18.8 8.4l11.4-10.5c-7-10-19.2-13-30.6-13-25.8 0-39.3 14.1-39.3 40.9 0 26.7 12.2 41.2 39.2 41.2 12.4 0 24.5-3.2 31-7.8V56.3h-31.9v14.9z" class="st0"/></g></g><g id="g6182"><path id="path6172" d="M374.1 47.2h2.1l-17 53.3h-2.7l-16.6-51.3h-.2L323 100.5h-2.9l-16.6-53.4h2.1l15.9 51.3h.2l16.5-51.3h3.2l16.4 51.3h.2z" class="st1"/><path id="path6174" d="M380.1 74.2c.2 14.3 5.9 25.4 21.1 25.4 11 0 19.1-6.1 20.9-17.6h2.1c-1.5 12.2-10.6 19.7-22.7 19.7-16.5.2-23.4-12-23.4-27.9 0-17.8 11.3-27.9 23.4-27.9 16.6 0 24 13.7 23.4 28.3h-44.8zm42.5-2c.1-13.1-7.3-24.2-21.1-24.2-11.5 0-20.8 9.2-21.5 24.2z" class="st1"/><path id="path6176" d="M436.4 83.6c2.7 9.1 9.5 16.1 20.3 16.1 13.8 0 20.7-12 20.7-25.7 0-12.4-6-25.9-20.7-25.9-13 0-21.6 9.4-21.6 25.9v.5H433V26.4h2.1v35.7h.2c2.5-9.7 10.1-16.2 21.4-16.2 14.7 0 22.7 13.1 22.7 28 0 16.1-8.6 27.8-22.7 27.8-10.9 0-19.8-7.6-22.4-18.2h.1" class="st1"/><path id="path6178" d="M522.6 24.6c24.5 0 37.7 17.7 37.7 38.8 0 21.1-13.2 38.8-37.7 38.8-24.5 0-37.7-17.7-37.7-38.8 0-21 13.2-38.8 37.7-38.8zm0 75.6c22 0 35.2-15.4 35.4-36.7-.2-21.4-13.4-36.7-35.4-36.7s-35.2 15.4-35.4 36.7c.2 21.3 13.4 36.7 35.4 36.7z" class="st2"/><path id="path6180" d="M616.5 47.2c-.5-15.2-11-20.4-24.8-20.4-10.8 0-23.9 3.7-23.9 17 0 13.4 13.2 14.9 26.3 18 14.2 3.5 26 5.2 26 20.7 0 14-13.9 19.9-26.9 19.9-17.3 0-30.1-7.7-29.8-26.4h2.1c0 17.7 11.4 24.3 27.6 24.3 12 0 24.8-5.2 24.8-18 0-14.9-14.9-16.2-26.7-19-12.4-2.8-25.6-5-25.6-19.5 0-14.7 13.8-19.1 26-19.1 14.9 0 26.1 5.9 26.9 22.5h-2z" class="st2"/></g><g id="g6364"><radialGradient gradientUnits="userSpaceOnUse" gradientTransform="translate(31509.643 -9431.366) scale(31.9334)" r="2.013" cy="297.221" cx="-984.879" id="SVGID_1_"><stop id="stop6184" offset="0" stop-color="#c22043"/><stop id="stop6186" offset=".5" stop-color="#c22043"/><stop id="stop6188" offset=".744" stop-color="#c02042"/><stop id="stop6190" offset=".846" stop-color="#b91f3f"/><stop id="stop6192" offset=".922" stop-color="#ae1e3a"/><stop id="stop6194" offset=".984" stop-color="#a01c33"/><stop id="stop6196" offset="1" stop-color="#9b1b31"/></radialGradient><path id="path6199" d="M61.5 0C27.6 0 0 27.6 0 61.6s27.6 61.6 61.5 61.6 61.4-27.3 61.7-61.1v-1C122.9 27.3 95.5 0 61.5 0z" fill="url(#SVGID_1_)"/><linearGradient gradientTransform="matrix(1 0 0 -1 0 126.148)" y2="28.93" x2="68.853" y1="118.196" x1="36.363" gradientUnits="userSpaceOnUse" id="SVGID_2_"><stop id="stop6201" offset="0" stop-color="#f18996"/><stop id="stop6203" offset=".236" stop-color="#dd5f70"/><stop id="stop6205" offset=".472" stop-color="#ce3d55"/><stop id="stop6207" offset=".668" stop-color="#c52848"/><stop id="stop6209" offset=".801" stop-color="#c22043"/><stop id="stop6211" offset="1" stop-color="#c22043"/></linearGradient><path id="path6214" d="M19.9 19.9c-20.6 20.6-22.7 51.9-4.6 70s49.4 16 70-4.6 22.7-52 4.6-70.1C81.7 7 70.7 3 59.1 3c-13.6 0-28 5.7-39.2 16.9" fill="url(#SVGID_2_)"/><linearGradient gradientTransform="matrix(1 0 0 -1 0 126.148)" y2="21.601" x2="95.025" y1="96.137" x1="20.489" gradientUnits="userSpaceOnUse" id="SVGID_3_"><stop id="stop6216" offset="0" stop-color="#ce435d"/><stop id="stop6218" offset=".116" stop-color="#ba354f"/><stop id="stop6220" offset=".271" stop-color="#a82944"/><stop id="stop6222" offset=".447" stop-color="#9b203c"/><stop id="stop6224" offset=".658" stop-color="#941b37"/><stop id="stop6226" offset="1" stop-color="#921936"/></linearGradient><path id="path6229" d="M58.4 89.2l1.5-.9v-52l-.4-.6.4-.1v-.1h.3l4.6-1.6.8 1.4s.1.1.1.4l-.1 47.4h11.2l.9 1.4c.1.1.1.2.1.6v4.8c0 .3-.2.4-.3.4H60.4c-.4 0-.8-.2-.9-.2zM114 58.7H75.9v6.1l.9 1.3s.1.1.3.1h31.8c-1.6 24.1-22 43-46.3 43-12.4 0-24-4.8-32.8-13.5-8.6-8.7-13.4-20.2-13.4-32.6 0-12.3 4.6-24.1 13.3-32.8 8.8-8.7 19.9-13.3 33.1-13.5h2.8c.2 0 .3 0 .3-.4v-5c0-.4-.1-.5-.1-.5l-1.1-1.4-2.5.4-1.3.4c-28.9 0-50.6 24.2-50.6 53 0 13.9 5.5 27.1 15.4 36.9 9.9 9.9 23 14.9 37 14.9 14.1 0 27.3-5.3 37.2-15.2 9.9-9.9 15.4-23 15.4-36.9v-3zM42.7 34.6c-4.6 0-8.3 3.7-8.3 8.2 0 4.5 3.7 8.2 8.3 8.2 4.6 0 8.3-3.7 8.3-8.2 0-4.5-3.7-8.2-8.3-8.2z" fill="url(#SVGID_3_)"/><path id="polygon6231" fill="#646e78" d="M76.9 89.2L75.7 88h-16l-1.3 1.2z"/><path id="polygon6233" fill="#8599a2" d="M64.8 83.1l-1.5 1.2h12.4l1.2-1.2z"/><path id="polygon6235" fill="#8f9ca3" d="M59.6 35h3.8l1.4-1.1h-6.4z"/><linearGradient gradientTransform="matrix(1 0 0 -1 0 126.148)" y2="67.105" x2="64.788" y1="67.105" x1="63.416" gradientUnits="userSpaceOnUse" id="SVGID_4_"><stop id="stop6237" offset="0" stop-color="#b4bdc3"/><stop id="stop6239" offset=".055" stop-color="#a9b3b9"/><stop id="stop6241" offset=".506" stop-color="#646a71"/><stop id="stop6243" offset=".833" stop-color="#3f464e"/><stop id="stop6245" offset="1" stop-color="#343b42"/></linearGradient><path id="polygon6248" fill="url(#SVGID_4_)" d="M64.8 33.9L63.4 35l.1 49.2 1.3-1.1z"/><linearGradient gradientTransform="matrix(1 0 0 -1 0 126.148)" y2="40.005" x2="76.873" y1="40.005" x1="75.664" gradientUnits="userSpaceOnUse" id="SVGID_5_"><stop id="stop6250" offset="0" stop-color="#b4bbc2"/><stop id="stop6252" offset=".159" stop-color="#959ca2"/><stop id="stop6254" offset=".56" stop-color="#565d62"/><stop id="stop6256" offset=".851" stop-color="#363d42"/><stop id="stop6258" offset="1" stop-color="#2b3337"/></linearGradient><path id="polygon6261" fill="url(#SVGID_5_)" d="M76.9 89.2v-6.1l-1.2 1.2V88z"/><path id="polygon6263" class="st11" d="M59.7 88l-.1-53-1.2-1.1v55.3z"/><path id="path6265" d="M35.1 41.9c0 3.8 3.1 6.8 6.9 6.8 3.8 0 6.8-3 6.8-6.8s-3.1-6.8-6.8-6.8c-3.9 0-6.9 3-6.9 6.8z" fill="none"/><linearGradient gradientTransform="rotate(45 -1912.412 14409.852) scale(11.45895)" y2="250.308" x2="-932.208" y1="250.308" x1="-933.609" gradientUnits="userSpaceOnUse" id="SVGID_6_"><stop id="stop6267" offset="0" stop-color="#acbcc3"/><stop id="stop6269" offset="1" stop-color="#272b31"/></linearGradient><path id="path6272" d="M33.9 41.9c0 4.4 3.6 8 8 8s8-3.6 8-8-3.6-8-8-8-8 3.6-8 8zm14.9 0c0 3.8-3.1 6.8-6.8 6.8-3.8 0-6.9-3-6.9-6.8s3.1-6.8 6.9-6.8c3.7 0 6.8 3 6.8 6.8z" fill="url(#SVGID_6_)"/><path id="polygon6274" fill="#525e62" d="M75.6 64.7h31.9l.7-.7.6-.5-32-.1z"/><path id="polygon6278" fill="#919ea6" d="M113.8 58.5l-38.2.1 1.2 1.2h35.7z"/><linearGradient gradientTransform="rotate(45 -11676.787 101523.352) scale(75.10153)" y2="286.084" x2="-999.557" y1="286.084" x1="-1000.958" gradientUnits="userSpaceOnUse" id="SVGID_7_"><stop id="stop6280" offset="0" stop-color="#b4bdc3"/><stop id="stop6282" offset="1" stop-color="#3f464e"/></linearGradient><path id="path6285" d="M113.8 61.6v-3l-1.2 1.2v1.8c0 13.6-5.3 26.4-14.9 36.1-9.6 9.6-22.4 14.9-36.1 14.9-13.6 0-26.4-5.3-36-14.9-9.7-9.7-15-22.5-15-36.1 0-28.1 22.9-51 50.9-51h2l1.2-1.2h-3.1C32.8 9.4 9.4 32.8 9.4 61.6c0 13.9 5.4 27.1 15.3 36.9 9.8 9.9 22.9 15.3 36.9 15.3s27.1-5.4 36.9-15.3c9.8-9.9 15.3-23 15.3-36.9z" fill="url(#SVGID_7_)"/><linearGradient gradientTransform="rotate(180 -34588.66 9737.987) scale(67.4051)" y2="288.026" x2="-1026.503" y1="288.026" x1="-1027.906" gradientUnits="userSpaceOnUse" id="SVGID_8_"><stop id="stop6287" offset="0" stop-color="#b4bdc3"/><stop id="stop6289" offset="1" stop-color="#49535b"/></linearGradient><path id="path6292" d="M63.5 14.3h-2.6c-12.3.2-23.9 5.1-32.7 13.8-9 8.9-13.9 20.8-13.9 33.5 0 12.6 4.9 24.5 13.8 33.4 8.8 8.8 20.4 13.7 32.8 13.9h1.2c24.5-.3 44.9-19.6 46.6-44.1v-1.3l-.6.6-.6.7c-1.7 24.1-21.8 43-46 43-12.3 0-23.9-4.8-32.6-13.5-8.7-8.7-13.5-20.3-13.5-32.6s4.8-23.9 13.5-32.6c8.7-8.7 20.3-13.5 32.6-13.5h3.1z" fill="url(#SVGID_8_)"/><linearGradient gradientTransform="rotate(180 -34588.66 9737.987) scale(67.4051)" y2="288.709" x2="-1027.252" y1="288.709" x1="-1027.252" gradientUnits="userSpaceOnUse" id="SVGID_9_"><stop id="stop6296" offset="0" stop-color="#abb8c2"/><stop id="stop6298" offset="1" stop-color="#102029"/></linearGradient><path id="polygon6303" class="st11" d="M75.6 64.7l1.2-1.3v-3.6l-1.2-1.2z"/><linearGradient gradientTransform="matrix(1 0 0 -1 0 126.148)" y2="113.687" x2="64.667" y1="113.687" x1="63.48" gradientUnits="userSpaceOnUse" id="SVGID_10_"><stop id="stop6305" offset="0" stop-color="#b4bbc2"/><stop id="stop6307" offset=".159" stop-color="#959ca2"/><stop id="stop6309" offset=".56" stop-color="#565d62"/><stop id="stop6311" offset=".851" stop-color="#363d42"/><stop id="stop6313" offset="1" stop-color="#2b3337"/></linearGradient><path id="polygon6316" fill="url(#SVGID_10_)" d="M64.7 9.4l-1.2 1.1v3.8l1.2 1.2z"/><radialGradient gradientUnits="userSpaceOnUse" gradientTransform="matrix(.6971 0 0 -.6971 -189.86 316.744)" r="113.067" cy="397.374" cx="330.82" id="SVGID_11_"><stop id="stop6318" offset="0" stop-color="#fff"/><stop id="stop6320" offset=".35" stop-color="#fff"/><stop id="stop6322" offset=".498" stop-color="#fcfcfd"/><stop id="stop6324" offset=".65" stop-color="#f1f4f6"/><stop id="stop6326" offset=".804" stop-color="#e0e6e9"/><stop id="stop6328" offset=".96" stop-color="#c7d2d8"/><stop id="stop6330" offset="1" stop-color="#c0cdd3"/></radialGradient><path id="path6333" d="M59.1 34.6v54h17.2v-4.8H64V34.6zM60.9 10C32.8 10.3 10 33.3 10 61.6c0 13.8 5.4 26.7 15.1 36.5 9.7 9.7 22.7 15.1 36.4 15.1 13.8 0 26.8-5.4 36.5-15.1s15.1-22.7 15.1-36.5v-2.3H76.3V64h31.9v.7c-1.7 24.3-21.9 43.6-46.6 43.6-12.5 0-24.2-4.9-33-13.7-8.8-8.8-13.7-20.5-13.7-33s4.9-24.2 13.7-33c8.9-8.8 20.6-13.7 33-13.7h2.5V10h-3.2z" fill="url(#SVGID_11_)"/><radialGradient gradientUnits="userSpaceOnUse" gradientTransform="matrix(.6971 0 0 -.6971 -189.86 316.744)" r="16.506" cy="398.159" cx="328.037" id="SVGID_12_"><stop id="stop6335" offset="0" stop-color="#fff"/><stop id="stop6337" offset=".35" stop-color="#fff"/><stop id="stop6339" offset=".521" stop-color="#fcfdfd"/><stop id="stop6341" offset=".698" stop-color="#f2f5f6"/><stop id="stop6343" offset=".878" stop-color="#e0e7eb"/><stop id="stop6345" offset="1" stop-color="#d0dbe0"/></radialGradient><path id="path6348" d="M34.5 41.9c0 4.1 3.3 7.4 7.4 7.4 4.1 0 7.4-3.3 7.4-7.4 0-4.1-3.3-7.4-7.4-7.4-4.1 0-7.4 3.3-7.4 7.4" fill="url(#SVGID_12_)"/><g id="g6362"><path id="path6350" d="M43.2 35.9c1.7 0 3.2.6 4.5 1.6-1.3-1.8-3.5-2.9-5.8-2.9-4.1 0-7.4 3.3-7.4 7.4 0 2.4 1.1 4.4 2.9 5.8-1-1.2-1.5-2.8-1.5-4.4-.1-4.2 3.2-7.5 7.3-7.5" class="st23"/><path id="path6352" d="M64 10h-2.5C33.1 10 10 33.1 10 61.6c0 13.8 5.4 26.7 15.1 36.5l.9.9c-9.2-9.6-14.2-22.2-14.2-35.5C11.8 35 31.9 11.5 64 10" class="st23"/><path id="path6354" d="M64 83.7s3.5 1 12.2 1v-1z" class="st23"/><path id="path6356" d="M64 36.1v-1.5h-4.9v54s1.5-8.2 1.5-52.5z" class="st23"/><path id="path6358" d="M113.1 59.2H76.3V64h1.3v-3.4c32.1 0 35.5-1.4 35.5-1.4" class="st23"/><path id="path6360" d="M108.2 64v.7c-1.6 24.3-21.9 43.6-46.6 43.6-12.5 0-24.2-4.9-33-13.7-5.8-5.7-9.8-12.8-11.9-20.4 5.5 20.1 23.9 34.7 45.8 34.7 23.5 0 45.1-18.4 46.4-44.9z" class="st23"/></g></g></svg>